<svg width="22" height="22" viewBox="0 0 22 22" fill="none" xmlns="http://www.w3.org/2000/svg">
<g clip-path="url(#clip0_11_427)">
<path d="M6.53125 2.75C6.85352 2.75 7.12923 2.78223 7.3584 2.84668C7.58756 2.91113 7.79525 2.99707 7.98144 3.10449C8.16764 3.21191 8.33236 3.32292 8.47558 3.4375C8.61881 3.55208 8.76204 3.66309 8.90527 3.77051C9.0485 3.87793 9.20605 3.96029 9.37793 4.01758C9.5498 4.07487 9.74674 4.11068 9.96875 4.125H20.625C20.8184 4.125 20.9974 4.16081 21.1621 4.23242C21.3268 4.30404 21.4701 4.40072 21.5918 4.52246C21.7135 4.64421 21.8138 4.79102 21.8926 4.96289C21.9714 5.13477 22.0072 5.3138 22 5.5V15.125H20.625V5.5H9.96875C9.74674 5.5 9.55338 5.53223 9.38867 5.59668C9.22396 5.66113 9.06641 5.74707 8.91601 5.85449C8.76562 5.96191 8.61881 6.07292 8.47558 6.1875C8.33236 6.30208 8.17122 6.41309 7.99219 6.52051C7.81315 6.62793 7.60547 6.71029 7.36914 6.76758C7.13281 6.82487 6.85352 6.86068 6.53125 6.875H1.375V17.875H12.375V19.25H0V4.125C0 3.93164 0.0358073 3.7526 0.107422 3.58789C0.179036 3.42318 0.275716 3.27995 0.397461 3.1582C0.519206 3.03646 0.666016 2.9362 0.837891 2.85742C1.00977 2.77865 1.1888 2.74284 1.375 2.75H6.53125ZM6.53125 5.5C6.70312 5.5 6.85352 5.48568 6.98242 5.45703C7.11133 5.42839 7.22949 5.38184 7.33691 5.31738C7.44434 5.25293 7.54818 5.18132 7.64844 5.10254C7.7487 5.02376 7.86328 4.92708 7.99219 4.8125C7.87044 4.70508 7.75944 4.61198 7.65918 4.5332C7.55892 4.45443 7.4515 4.38281 7.33691 4.31836C7.22233 4.25391 7.10417 4.20736 6.98242 4.17871C6.86068 4.15007 6.71029 4.13216 6.53125 4.125H1.375V5.5H6.53125ZM19.25 17.875H22V19.25H19.25V22H17.875V19.25H15.125V17.875H17.875V15.125H19.25V17.875ZM15.6084 10.1084L11 14.7275L6.3916 10.1084L7.3584 9.1416L11 12.7725L14.6416 9.1416L15.6084 10.1084Z" fill="#252525"/>
</g>
<defs>
<clipPath id="clip0_11_427">
<rect width="22" height="22" fill="white"/>
</clipPath>
</defs>
</svg>
