<svg width="29" height="29" viewBox="0 0 29 29" fill="none" xmlns="http://www.w3.org/2000/svg">
<path d="M9.42363 10.875C9.85207 10.875 10.2763 10.7906 10.6721 10.6267C11.068 10.4627 11.4276 10.2224 11.7306 9.91943C12.0335 9.61648 12.2738 9.25683 12.4378 8.861C12.6017 8.46518 12.6861 8.04094 12.6861 7.6125C12.6861 7.18406 12.6017 6.75982 12.4378 6.36399C12.2738 5.96817 12.0335 5.60851 11.7306 5.30556C11.4276 5.00261 11.068 4.7623 10.6721 4.59834C10.2763 4.43439 9.85207 4.35 9.42363 4.35C8.55836 4.35 7.72853 4.69373 7.1167 5.30556C6.50486 5.9174 6.16113 6.74723 6.16113 7.6125C6.16113 8.47777 6.50486 9.3076 7.1167 9.91943C7.72853 10.5313 8.55836 10.875 9.42363 10.875ZM9.42363 9.425C8.94293 9.425 8.48191 9.23404 8.142 8.89413C7.80209 8.55422 7.61113 8.0932 7.61113 7.6125C7.61113 7.13179 7.80209 6.67078 8.142 6.33087C8.48191 5.99096 8.94293 5.8 9.42363 5.8C9.90434 5.8 10.3654 5.99096 10.7053 6.33087C11.0452 6.67078 11.2361 7.13179 11.2361 7.6125C11.2361 8.0932 11.0452 8.55422 10.7053 8.89413C10.3654 9.23404 9.90434 9.425 9.42363 9.425ZM4.34863 13.05C4.34863 12.6654 4.5014 12.2966 4.77333 12.0247C5.04526 11.7528 5.41407 11.6 5.79863 11.6H13.0486C13.4332 11.6 13.802 11.7528 14.0739 12.0247C14.3459 12.2966 14.4986 12.6654 14.4986 13.05V19.575C14.4986 20.2415 14.3674 20.9014 14.1123 21.5171C13.8573 22.1328 13.4835 22.6923 13.0122 23.1636C12.5409 23.6348 11.9815 24.0086 11.3658 24.2637C10.75 24.5187 10.0901 24.65 9.42363 24.65C8.75717 24.65 8.09724 24.5187 7.48151 24.2637C6.86579 24.0086 6.30632 23.6348 5.83507 23.1636C5.36381 22.6923 4.98999 22.1328 4.73494 21.5171C4.4799 20.9014 4.34863 20.2415 4.34863 19.575V13.05ZM5.79863 13.05V19.575C5.79863 20.5364 6.18055 21.4584 6.86037 22.1383C7.54019 22.8181 8.46222 23.2 9.42363 23.2C10.385 23.2 11.3071 22.8181 11.9869 22.1383C12.6667 21.4584 13.0486 20.5364 13.0486 19.575V13.05H5.79863ZM13.9563 8.90735C13.8292 9.35423 13.6356 9.77947 13.3821 10.1688C13.981 10.2384 14.5233 10.4878 14.9539 10.8648C15.0419 10.8706 15.1318 10.874 15.2236 10.875C15.7377 10.875 16.2444 10.7535 16.7026 10.5204C17.1608 10.2873 17.5574 9.94931 17.8601 9.53387C18.1628 9.11843 18.3631 8.63733 18.4446 8.12979C18.5261 7.62226 18.4866 7.10264 18.3291 6.61331C18.1717 6.12397 17.9009 5.67876 17.5387 5.31396C17.1765 4.94916 16.7333 4.6751 16.2451 4.51412C15.7569 4.35313 15.2376 4.30978 14.7295 4.3876C14.2214 4.46541 13.7389 4.66219 13.3212 4.9619C13.5996 5.37225 13.8157 5.829 13.9563 6.31765C14.2114 6.06814 14.5344 5.89944 14.8849 5.83271C15.2354 5.76598 15.5978 5.80417 15.9266 5.94251C16.2555 6.08085 16.5362 6.31318 16.7337 6.61038C16.9311 6.90758 17.0364 7.25643 17.0364 7.61322C17.0364 7.97001 16.9311 8.31887 16.7337 8.61607C16.5362 8.91327 16.2555 9.1456 15.9266 9.28394C15.5978 9.42228 15.2354 9.46047 14.8849 9.39374C14.5344 9.32701 14.2114 9.15686 13.9563 8.90735ZM13.7722 24.4412C14.53 24.6674 15.3301 24.7133 16.1088 24.5754C16.8875 24.4375 17.6232 24.1194 18.2572 23.6467C18.8912 23.174 19.4059 22.5597 19.7604 21.8528C20.1148 21.1458 20.2991 20.3658 20.2986 19.575V13.05C20.2986 12.6654 20.1459 12.2966 19.8739 12.0247C19.602 11.7528 19.2332 11.6 18.8486 11.6H15.5615C15.808 12.0263 15.9501 12.5222 15.9501 13.05H18.8501V19.575C18.8502 20.0817 18.7441 20.5828 18.5386 21.0459C18.3331 21.509 18.0328 21.924 17.6571 22.2639C17.2814 22.6038 16.8386 22.8612 16.3572 23.0194C15.8759 23.1777 15.3667 23.2333 14.8626 23.1826C14.5523 23.6485 14.1898 24.0676 13.7751 24.4397M19.7592 8.90735C19.6321 9.35423 19.4385 9.77947 19.185 10.1688C19.7839 10.2384 20.3262 10.4878 20.7568 10.8648C20.8448 10.8706 20.9347 10.874 21.0265 10.875C21.5406 10.875 22.0473 10.7535 22.5055 10.5204C22.9637 10.2873 23.3603 9.94931 23.663 9.53387C23.9657 9.11843 24.166 8.63733 24.2475 8.12979C24.329 7.62226 24.2895 7.10264 24.132 6.61331C23.9746 6.12397 23.7038 5.67876 23.3416 5.31396C22.9794 4.94916 22.5362 4.6751 22.048 4.51412C21.5598 4.35313 21.0405 4.30978 20.5324 4.3876C20.0243 4.46541 19.5418 4.66219 19.1241 4.9619C19.4025 5.37225 19.6186 5.829 19.7592 6.31765C20.0143 6.06814 20.3373 5.89944 20.6878 5.83271C21.0383 5.76598 21.4007 5.80417 21.7295 5.94251C22.0584 6.08085 22.3391 6.31318 22.5366 6.61038C22.734 6.90758 22.8393 7.25643 22.8393 7.61322C22.8393 7.97001 22.734 8.31887 22.5366 8.61607C22.3391 8.91327 22.0584 9.1456 21.7295 9.28394C21.4007 9.42228 21.0383 9.46047 20.6878 9.39374C20.3373 9.32701 20.0143 9.15686 19.7592 8.90735ZM19.5751 24.4412C20.0372 24.5794 20.5205 24.6495 21.0251 24.6514C22.3711 24.6514 23.6619 24.1168 24.6137 23.165C25.5654 22.2133 26.1001 20.9224 26.1001 19.5764V13.05C26.1001 12.6654 25.9473 12.2966 25.6754 12.0247C25.4035 11.7528 25.0346 11.6 24.6501 11.6H21.3629C21.6094 12.0263 21.7515 12.5222 21.7515 13.05H24.6515V19.575C24.6516 20.0817 24.5455 20.5828 24.34 21.0459C24.1346 21.509 23.8343 21.924 23.4585 22.2639C23.0828 22.6038 22.64 22.8612 22.1587 23.0194C21.6773 23.1777 21.1682 23.2333 20.664 23.1826C20.3537 23.6485 19.9912 24.0676 19.5765 24.4397" fill="#252525"/>
</svg>
