<svg width="27" height="26" viewBox="0 0 27 26" fill="none" xmlns="http://www.w3.org/2000/svg">
<g clip-path="url(#clip0_11_411)">
<path d="M21.0021 17.5258C21.2745 17.7768 21.5363 18.018 21.8706 18.3259C21.9489 18.2192 22.0232 18.0808 22.1318 17.9766C22.3726 17.7457 22.6476 17.7399 22.8877 17.9753C24.0523 19.1164 25.2333 20.2425 26.361 21.4178C27.2275 22.3208 27.1979 23.7807 26.361 24.7354C26.1544 24.9715 25.9261 25.1933 25.684 25.3945C24.7287 26.1894 23.2871 26.2192 22.3647 25.3738C21.1547 24.2651 20.0086 23.0885 18.844 21.9333C18.6309 21.7224 18.6361 21.4663 18.8315 21.2328C18.9348 21.1092 19.0533 20.9973 19.1638 20.8809C18.9309 20.6578 18.7072 20.443 18.4657 20.2114C15.7056 22.2328 12.5936 22.9999 9.17227 22.3292C6.35298 21.7768 4.06137 20.3292 2.32506 18.0788C-1.1298 13.6021 -0.686347 7.29682 3.335 3.32334C7.36029 -0.655313 13.7542 -1.11521 18.3058 2.23279C22.9279 5.63188 24.4898 12.2166 21.0021 17.5258ZM21.8646 11.2904C21.8785 5.63253 17.2288 1.0465 11.4553 1.02515C5.73912 1.00445 1.05983 5.60018 1.04404 11.2515C1.02825 16.8841 5.6753 21.509 11.3665 21.5245C17.1735 21.5407 21.8508 16.9812 21.8653 11.2904H21.8646ZM19.956 21.5905C20.9929 22.606 22.0015 23.6248 23.047 24.6067C23.5615 25.0892 24.3806 25.0808 24.9609 24.65C25.1517 24.5083 25.3208 24.335 25.484 24.161C26.1255 23.4792 26.1064 22.6015 25.4392 21.9359C24.9234 21.4217 24.4004 20.9145 23.8872 20.3984C23.4378 19.9462 22.997 19.4851 22.5581 19.0342C21.6633 19.9126 20.8271 20.7347 19.956 21.5898V21.5905ZM20.3586 18.4023C20.0211 18.7567 19.673 19.1222 19.325 19.487C19.5263 19.6927 19.727 19.8964 19.9079 20.0814C20.2862 19.7218 20.6468 19.3796 21.0258 19.0193C20.8047 18.8149 20.5909 18.617 20.358 18.4023H20.3586Z" fill="#252525"/>
<path d="M11.4444 17.4353C9.94433 17.401 8.45607 16.9767 7.03623 16.3241C6.23222 15.9547 5.97299 14.9864 6.40329 14.2212C7.01386 13.1352 7.89419 12.4269 9.19099 12.3364C9.37916 12.3234 9.63642 12.4043 9.76274 12.5343C10.7806 13.5867 12.0623 13.6022 13.0584 12.5408C13.24 12.3473 13.4301 12.2943 13.6986 12.3234C14.9769 12.4612 15.8402 13.1675 16.4685 14.216C16.9244 14.978 16.6692 15.9651 15.8579 16.3493C14.4934 16.9948 13.0584 17.4049 11.4444 17.4353ZM11.2819 16.4036C12.6208 16.4075 14.319 15.9903 15.3184 15.4715C15.6125 15.3189 15.7474 15.0563 15.5921 14.806C15.202 14.1785 14.798 13.5433 13.9552 13.4431C13.8163 13.4263 13.6301 13.4631 13.5262 13.5472C12.184 14.6358 10.6319 14.63 9.30745 13.5298C9.21336 13.4521 9.03901 13.4263 8.90873 13.4392C8.08565 13.5233 7.6922 14.1378 7.30993 14.7451C7.14347 15.0091 7.25532 15.3085 7.56258 15.4405C8.82517 15.9819 10.1272 16.379 11.2819 16.4036Z" fill="#252525"/>
<path d="M11.4746 5.12419C13.0477 5.13389 14.0182 5.87775 14.4169 7.3784C14.8959 9.18176 14.1774 11.0013 12.6352 11.9347C11.8667 12.3997 11.1008 12.4179 10.3449 11.9515C8.29604 10.6869 7.75192 8.42497 8.91516 6.41656C9.46718 5.46313 10.3988 5.13001 11.4746 5.12484V5.12419ZM13.5826 8.50194C13.4925 8.10608 13.4418 7.69664 13.3043 7.31759C13.0207 6.53816 12.3996 6.17982 11.5825 6.15589C10.7877 6.13195 10.0955 6.36417 9.71588 7.11061C8.91713 8.68111 9.48823 10.2956 11.014 11.1442C11.4015 11.3596 11.7818 11.2853 12.1253 11.042C13.0016 10.4224 13.5366 9.6132 13.5833 8.50194H13.5826Z" fill="#252525"/>
</g>
<defs>
<clipPath id="clip0_11_411">
<rect width="27" height="26" fill="white"/>
</clipPath>
</defs>
</svg>
