<svg width="25" height="23" viewBox="0 0 25 23" fill="none" xmlns="http://www.w3.org/2000/svg">
<path d="M2.77 20C2.19417 20 1.71375 19.8075 1.32875 19.4225C0.94375 19.0375 0.750833 18.5567 0.75 17.98V5.77C0.75 5.19417 0.942917 4.71375 1.32875 4.32875C1.71458 3.94375 2.19458 3.75083 2.76875 3.75H8.25V2.01875C8.25 1.44375 8.44292 0.963334 8.82875 0.577501C9.21458 0.191667 9.695 -0.000832547 10.27 7.86619e-07H13.7313C14.3063 7.86619e-07 14.7867 0.192501 15.1725 0.577501C15.5583 0.962501 15.7508 1.44292 15.75 2.01875V3.75H21.2313C21.8062 3.75 22.2863 3.94292 22.6713 4.32875C23.0563 4.71458 23.2492 5.195 23.25 5.77V11.0175C23.0508 10.8908 22.8512 10.7804 22.6512 10.6863C22.4513 10.5929 22.2342 10.5054 22 10.4237V5.77C22 5.545 21.9279 5.36042 21.7837 5.21625C21.6396 5.07208 21.4554 5 21.2313 5H2.76875C2.54458 5 2.36042 5.07208 2.21625 5.21625C2.07208 5.36042 2 5.545 2 5.77V17.9813C2 18.2054 2.07208 18.3896 2.21625 18.5338C2.36042 18.6779 2.545 18.75 2.77 18.75H12.0938C12.1404 18.9792 12.1904 19.1942 12.2437 19.395C12.2962 19.595 12.36 19.7967 12.435 20H2.77ZM9.5 3.75H14.5V2.01875C14.5 1.79458 14.4279 1.61042 14.2837 1.46625C14.1396 1.32208 13.9554 1.25 13.7313 1.25H10.2687C10.0446 1.25 9.86042 1.32208 9.71625 1.46625C9.57208 1.61042 9.5 1.79458 9.5 2.01875V3.75ZM19.5 22.5C18.1075 22.5 16.9263 22.015 15.9563 21.045C14.9854 20.0733 14.5 18.8917 14.5 17.5C14.5 16.1083 14.9854 14.9271 15.9563 13.9563C16.9271 12.9854 18.1083 12.5 19.5 12.5C20.8917 12.5 22.0733 12.9854 23.045 13.9563C24.0167 14.9271 24.5017 16.1083 24.5 17.5C24.4983 18.8917 24.0133 20.0733 23.045 21.045C22.0767 22.0167 20.895 22.5017 19.5 22.5ZM19.9813 17.2988V13.895H19.0187V17.7025L21.5625 20.245L22.245 19.5625L19.9813 17.2988Z" fill="#252525"/>
</svg>
